<?xml version="1.0" encoding="UTF-8" standalone="no"?>
<!-- Created with Inkscape (http://www.inkscape.org/) -->

<svg
   xmlns:dc="http://purl.org/dc/elements/1.1/"
   xmlns:cc="http://creativecommons.org/ns#"
   xmlns:rdf="http://www.w3.org/1999/02/22-rdf-syntax-ns#"
   xmlns:svg="http://www.w3.org/2000/svg"
   xmlns="http://www.w3.org/2000/svg"
   xmlns:sodipodi="http://sodipodi.sourceforge.net/DTD/sodipodi-0.dtd"
   xmlns:inkscape="http://www.inkscape.org/namespaces/inkscape"
   width="56.737103mm"
   height="48.145897mm"
   viewBox="0 0 56.737103 48.145897"
   version="1.1"
   id="svg8"
   inkscape:version="0.92.4 (5da689c313, 2019-01-14)"
   sodipodi:docname="LOGO FINAL PJ 4.svg">
  <defs
     id="defs2">
    <inkscape:perspective
       sodipodi:type="inkscape:persp3d"
       inkscape:vp_x="0 : 148.49999 : 1"
       inkscape:vp_y="0 : 999.99994 : 0"
       inkscape:vp_z="210.00001 : 148.49999 : 1"
       inkscape:persp3d-origin="105.00001 : 98.999994 : 1"
       id="perspective49" />
  </defs>
  <sodipodi:namedview
     id="base"
     pagecolor="#ffffff"
     bordercolor="#666666"
     borderopacity="1.0"
     inkscape:pageopacity="0.0"
     inkscape:pageshadow="2"
     inkscape:zoom="0.76"
     inkscape:cx="9.4452469"
     inkscape:cy="13.579164"
     inkscape:document-units="mm"
     inkscape:current-layer="layer1"
     showgrid="false"
     inkscape:snap-text-baseline="true"
     inkscape:object-paths="false"
     inkscape:window-width="1366"
     inkscape:window-height="705"
     inkscape:window-x="-8"
     inkscape:window-y="-8"
     inkscape:window-maximized="1"
     showguides="true" />
  <metadata
     id="metadata5">
    <rdf:RDF>
      <cc:Work
         rdf:about="">
        <dc:format>image/svg+xml</dc:format>
        <dc:type
           rdf:resource="http://purl.org/dc/dcmitype/StillImage" />
        <dc:title></dc:title>
      </cc:Work>
    </rdf:RDF>
  </metadata>
  <g
     inkscape:label="Capa 1"
     inkscape:groupmode="layer"
     id="layer1"
     transform="translate(-110.4222,-49.414554)">
    <path
       id="flowRoot10"
       transform="scale(0.26458333)"
       style="font-style:normal;font-weight:normal;font-size:40px;line-height:1.25;font-family:sans-serif;letter-spacing:0px;word-spacing:0px;fill:#000000;fill-opacity:1;stroke:none"
       d="m 502,186.76367 c -18.6875,0 -34.34375,5.4375 -46.96875,16.3125 -12.625,10.875 -18.9375,22.1875 -18.9375,33.9375 0,4.375 1.25,8.4375 3.75,12.1875 2.5,3.6875 5.15625,5.53125 7.96875,5.53125 1.875,0 5.15625,-1.125 9.84375,-3.375 4.6875,-2.25 7.03125,-4.21875 7.03125,-5.90625 0,-1.625 -1.0625,-2.90625 -3.1875,-3.84375 -5.375,-2.1875 -8.0625,-6.21875 -8.0625,-12.09375 0,-8.875 4.96875,-17.03125 14.90625,-24.46875 9.9375,-7.5 21.03125,-11.25 33.28125,-11.25 8.125,0 14.5625,2.09375 19.3125,6.28125 4.75,4.125 7.125,9.71875 7.125,16.78125 0,8.375 -3.4375,16.8125 -10.3125,25.3125 -2.9375,3.875 -4.40625,6.125 -4.40625,6.75 0,1.125 0.96875,2.375 2.90625,3.75 2,1.375 3.78125,2.0625 5.34375,2.0625 4.1875,0 9.15625,-2.96875 14.90625,-8.90625 5.8125,-6 8.71875,-13.9375 8.71875,-23.8125 0,-10.6875 -3.90625,-19.21875 -11.71875,-25.59375 -7.8125,-6.4375 -18.3125,-9.65625 -31.5,-9.65625 z m 91.5332,0.1875 c -9.125,0 -18.15625,4.625 -27.09375,13.875 -8.9375,9.1875 -13.40625,18.5 -13.40625,27.9375 0,4.6875 1.25,8.59375 3.75,11.71875 2.5,3.0625 4.5625,4.59375 6.1875,4.59375 1.6875,0 3.9375,-1.5625 6.75,-4.6875 2.8125,-3.125 4.21875,-5.15625 4.21875,-6.09375 0,-1 -1.59375,-2.71875 -4.78125,-5.15625 -3.1875,-2.5 -4.78125,-5.6875 -4.78125,-9.5625 0,-4.5 1.78125,-8.5 5.34375,-12 3.625,-3.5625 7.78125,-5.34375 12.46875,-5.34375 2.8125,0 6,0.75 9.5625,2.25 3.5625,1.5 6.59375,2.25 9.09375,2.25 4.1875,0 9.3125,-1.625 15.375,-4.875 -1.5625,2.5 -5.40625,7.6875 -11.53125,15.5625 -6.125,7.8125 -10.65625,14.71875 -13.59375,20.71875 -2.9375,5.9375 -5.53125,14.09375 -7.78125,24.46875 -2.25,10.3125 -5.75,29.5625 -10.5,57.75 -26.75,9.3125 -40.125,20.84375 -40.125,34.59375 0,4.125 1.21875,7.4375 3.65625,9.9375 2.5,2.5625 5.75,3.84375 9.75,3.84375 8.75,0 18.03125,-4 27.84375,-12 9.875,-7.9375 17.75,-20.3125 23.625,-37.125 17,-6.6875 28.40625,-13.28125 34.21875,-19.78125 v -10.78125 c -7.3125,9.625 -17.6875,16.71875 -31.125,21.28125 3,-10.5 6.5,-29.875 10.5,-58.125 l 1.40625,-9.375 c 1.625,-11.375 3.5625,-20.5625 5.8125,-27.5625 2.3125,-7.0625 4.875,-12.84375 7.6875,-17.34375 2.875,-4.5625 4.3125,-7.28125 4.3125,-8.15625 0,-1.3125 -2.4375,-2.25 -7.3125,-2.8125 -3.875,3.3125 -7.5,4.96875 -10.875,4.96875 -2.4375,0 -5.40625,-0.8125 -8.90625,-2.4375 -3.5,-1.6875 -6.75,-2.53125 -9.75,-2.53125 z m -79.25195,19.78125 c -2.25,0 -6.3125,1.53125 -12.1875,4.59375 -5.8125,3 -10.90625,8.125 -15.28125,15.375 -4.375,7.25 -7.65625,19.6875 -9.84375,37.3125 -2.125,17.5625 -5.59375,30.5 -10.40625,38.8125 -4.8125,8.25 -10.75,12.375 -17.8125,12.375 -6.25,0 -9.375,-3.71875 -9.375,-11.15625 0,-0.75 0.28125,-3.125 0.84375,-7.125 0.625,-4 0.9375,-6.3125 0.9375,-6.9375 0,-1 -0.375,-1.84375 -1.125,-2.53125 -0.75,-0.75 -1.65625,-1.125 -2.71875,-1.125 -1.5625,0 -4.5625,1.25 -9,3.75 -4.4375,2.5 -7.375,4.5 -8.8125,6 -1.4375,1.4375 -2.15625,3.3125 -2.15625,5.625 0,6.125 2.46875,11.15625 7.40625,15.09375 5,3.9375 11.46875,5.90625 19.40625,5.90625 11.1875,0 21.4375,-2.96875 30.75,-8.90625 9.375,-6 16.21875,-13.46875 20.53125,-22.40625 4.375,-8.9375 7.53125,-21.15625 9.46875,-36.65625 1.9375,-15.5625 3.84375,-25.78125 5.71875,-30.65625 1.875,-4.9375 4.875,-9.25 9,-12.9375 -2,-2.9375 -3.78125,-4.40625 -5.34375,-4.40625 z m 56.37695,122.0625 c -2.875,11.3125 -6.59375,19.46875 -11.15625,24.46875 -4.5,5.0625 -8.84375,7.59375 -13.03125,7.59375 -1.875,0 -3.4375,-0.65625 -4.6875,-1.96875 -1.1875,-1.25 -1.78125,-2.84375 -1.78125,-4.78125 0,-9.625 10.21875,-18.0625 30.65625,-25.3125 z"
       inkscape:connector-curvature="0" />
    <flowRoot
       xml:space="preserve"
       id="flowRoot152"
       style="font-style:normal;font-weight:normal;font-size:192px;line-height:1.25;font-family:sans-serif;letter-spacing:0px;word-spacing:0px;fill:#000000;fill-opacity:1;stroke:none"
       transform="scale(0.26458333)"><flowRegion
         id="flowRegion154"
         style="font-size:192px"><rect
           id="rect156"
           width="89.772728"
           height="159.09091"
           x="228.40909"
           y="221.38332"
           style="font-size:192px" /></flowRegion><flowPara
         id="flowPara158"></flowPara></flowRoot>    <text
       xml:space="preserve"
       style="font-style:normal;font-weight:normal;font-size:10.58333302px;line-height:1.25;font-family:sans-serif;letter-spacing:0px;word-spacing:0px;fill:#000000;fill-opacity:1;stroke:none;stroke-width:0.26458332"
       x="69.753784"
       y="80.522728"
       id="text162"><tspan
         sodipodi:role="line"
         id="tspan160"
         x="69.753784"
         y="90.178223"
         style="font-style:normal;font-variant:normal;font-weight:normal;font-stretch:normal;font-size:50.79999924px;font-family:'Script MT Bold';-inkscape-font-specification:'Script MT Bold, ';stroke-width:0.26458332" /></text>
    <flowRoot
       xml:space="preserve"
       id="flowRoot164"
       style="font-style:normal;font-weight:normal;font-size:40px;line-height:1.25;font-family:sans-serif;letter-spacing:0px;word-spacing:0px;fill:#000000;fill-opacity:1;stroke:none"
       transform="scale(0.26458333)"><flowRegion
         id="flowRegion166"><rect
           id="rect168"
           width="104.63262"
           height="164.88318"
           x="468.18182"
           y="155.47423" /></flowRegion><flowPara
         id="flowPara170"></flowPara></flowRoot>    <flowRoot
       xml:space="preserve"
       id="flowRoot172"
       style="font-style:normal;font-weight:normal;font-size:192px;line-height:1.25;font-family:sans-serif;letter-spacing:0px;word-spacing:0px;fill:#000000;fill-opacity:1;stroke:none"
       transform="scale(0.26458333)"><flowRegion
         id="flowRegion174"
         style="font-size:192px"><rect
           id="rect176"
           width="121.5909"
           height="223.86363"
           x="142.04546"
           y="80.474228"
           style="font-size:192px" /></flowRegion><flowPara
         id="flowPara178"
         style="font-style:normal;font-variant:normal;font-weight:normal;font-stretch:normal;font-size:192px;font-family:'Script MT Bold';-inkscape-font-specification:'Script MT Bold, '">P</flowPara></flowRoot>    <path
       style="fill:none;stroke:#000000;stroke-width:0.26458332px;stroke-linecap:butt;stroke-linejoin:miter;stroke-opacity:1"
       d="m 132.92578,71.419137 18.06086,15.574518"
       id="path180"
       inkscape:connector-curvature="0" />
  </g>
</svg>
